<?xml version="1.0" encoding="iso-8859-1"?>
<!-- Uploaded to: SVG Repo, www.svgrepo.com, Generator: SVG Repo Mixer Tools -->
<svg height="800px" width="800px" version="1.1" id="Layer_1" xmlns="http://www.w3.org/2000/svg" xmlns:xlink="http://www.w3.org/1999/xlink" 
	 viewBox="0 0 512 512" xml:space="preserve">
<path style="fill:#FDA409;" d="M502.865,188.049C473.095,79.648,373.856,0,256,0C114.615,0,0,114.615,0,256
	c0,117.856,79.648,217.094,188.049,246.865L502.865,188.049z"/>
<path style="fill:#FA690E;" d="M512,256c0-23.529-3.191-46.309-9.135-67.951l-89.458-89.458L98.592,413.408l89.458,89.458
	c21.641,5.944,44.422,9.135,67.951,9.135C397.385,512,512,397.384,512,256z"/>
<path style="fill:#FFF3AD;" d="M256,33.391L144.696,256L256,478.609c122.943,0,222.609-99.665,222.609-222.609
	S378.943,33.391,256,33.391z"/>
<path style="fill:#FFFFFF;" d="M33.391,256c0,122.943,99.665,222.609,222.609,222.609V33.391
	C133.057,33.391,33.391,133.057,33.391,256z"/>
<path style="fill:#FFD23E;" d="M256,66.783L161.391,256L256,445.217c104.501,0,189.217-84.715,189.217-189.217
	S360.501,66.783,256,66.783z"/>
<path style="fill:#FFE376;" d="M66.783,256c0,104.503,84.716,189.217,189.217,189.217V66.783
	C151.499,66.783,66.783,151.497,66.783,256z"/>
<path style="fill:#FDA409;" d="M256,111.304L183.652,256L256,400.696c79.913,0,144.696-64.782,144.696-144.696
	S335.913,111.304,256,111.304z"/>
<path style="fill:#FFC207;" d="M111.304,256c0,79.913,64.782,144.696,144.696,144.696V111.304
	C176.087,111.304,111.304,176.087,111.304,256z"/>
<path d="M256,89.043l-22.261,72.348L256,233.739c8.241,0,15.419-4.49,19.267-11.145h28.941v-50.109
	c4.726-8.179,7.444-17.664,7.444-27.789C311.652,113.96,286.736,89.043,256,89.043z"/>
<path style="fill:#3A160A;" d="M200.348,144.696c0,10.125,2.718,19.611,7.443,27.79v50.109h28.941
	c3.849,6.654,11.027,11.144,19.268,11.144V89.043C225.264,89.043,200.348,113.96,200.348,144.696z"/>
<path style="fill:#FA690E;" d="M256,111.304l-11.13,50.084L256,211.472l28.934-50.123c2.916-5.048,4.458-10.807,4.458-16.654
	C289.391,126.284,274.412,111.304,256,111.304z"/>
<path style="fill:#FC870B;" d="M222.609,144.696c0,5.848,1.542,11.607,4.459,16.657L256,211.473V111.304
	C237.588,111.304,222.609,126.284,222.609,144.696z"/>
<path d="M111.339,172.396l51.525,55.453l73.786,16.895c4.12-7.137,3.821-15.598-0.018-22.259l-28.925-50.118
	c-4.72-8.182-11.577-15.279-20.345-20.341C160.743,136.658,126.707,145.778,111.339,172.396z"/>
<path style="fill:#3A160A;" d="M131.709,248.418c8.769,5.063,18.342,7.452,27.788,7.45l43.395,25.055l14.471-25.065
	c7.688-0.006,15.164-3.977,19.285-11.114l-125.31-72.348C95.971,199.014,105.091,233.05,131.709,248.418z"/>
<path style="fill:#FA690E;" d="M130.618,183.526l37.809,34.681l48.939,15.402l-28.94-50.118c-2.914-5.05-7.13-9.264-12.195-12.188
	C160.285,162.098,139.824,167.581,130.618,183.526z"/>
<path style="fill:#FC870B;" d="M142.839,229.14c5.064,2.924,10.822,4.469,16.654,4.467l57.872,0.004l-86.748-50.084
	C121.412,199.472,126.894,219.934,142.839,229.14z"/>
<path d="M111.194,339.352l73.786-16.896l51.525-55.453c-4.12-7.137-11.598-11.108-19.285-11.114l-57.866-0.01
	c-9.446-0.002-19.02,2.386-27.788,7.45C104.946,278.698,95.826,312.734,111.194,339.352z"/>
<path style="fill:#3A160A;" d="M187.216,359.722c8.769-5.063,15.625-12.159,20.345-20.341l43.395-25.055l-14.471-25.065
	c3.839-6.66,4.138-15.122,0.018-22.259l-125.31,72.348C126.562,365.971,160.598,375.091,187.216,359.722z"/>
<path style="fill:#FA690E;" d="M130.472,328.222l48.939-15.402l37.809-34.681l-57.874,0.003c-5.83-0.002-11.588,1.543-16.652,4.467
	C126.749,291.814,121.266,312.277,130.472,328.222z"/>
<path style="fill:#FC870B;" d="M176.086,340.444c5.064-2.924,9.281-7.138,12.196-12.19l28.939-50.116l-86.748,50.084
	C139.678,344.168,160.14,349.65,176.086,340.444z"/>
<path d="M255.709,422.957l22.261-72.348l-22.261-72.348c-8.241,0-15.419,4.49-19.267,11.145l-28.941,50.109
	c-4.726,8.18-7.443,17.665-7.443,27.79C200.057,398.04,224.974,422.957,255.709,422.957z"/>
<path style="fill:#3A160A;" d="M311.362,367.304c0-10.125-2.718-19.611-7.443-27.79v-50.109h-28.941
	c-3.849-6.655-11.026-11.145-19.267-11.145v144.696C286.446,422.957,311.362,398.04,311.362,367.304z"/>
<path style="fill:#FA690E;" d="M255.709,400.696l11.13-50.084l-11.13-50.084l-28.934,50.123c-2.916,5.048-4.458,10.807-4.458,16.654
	C222.318,385.716,237.298,400.696,255.709,400.696z"/>
<path style="fill:#FC870B;" d="M289.101,367.304c0-5.848-1.542-11.607-4.459-16.657l-28.932-50.12v100.168
	C274.121,400.696,289.101,385.716,289.101,367.304z"/>
<path d="M400.371,339.604l-51.525-55.452l-73.786-16.895c-4.12,7.137-3.821,15.598,0.018,22.259l28.925,50.118
	c4.72,8.182,11.577,15.279,20.345,20.341C350.967,375.342,385.003,366.222,400.371,339.604z"/>
<path style="fill:#3A160A;" d="M380.001,263.582c-8.769-5.063-18.342-7.452-27.788-7.45l-43.395-25.055l-14.471,25.065
	c-7.688,0.006-15.164,3.977-19.285,11.114l125.31,72.348C415.738,312.986,406.619,278.95,380.001,263.582z"/>
<path style="fill:#FA690E;" d="M381.093,328.474l-37.809-34.681l-48.939-15.402l28.94,50.118c2.913,5.05,7.13,9.264,12.194,12.188
	C351.425,349.902,371.887,344.419,381.093,328.474z"/>
<path style="fill:#FC870B;" d="M368.87,282.86c-5.064-2.924-10.822-4.469-16.654-4.467l-57.872-0.004l86.748,50.084
	C390.299,312.528,384.816,292.066,368.87,282.86z"/>
<path d="M400.516,172.648l-73.786,16.895l-51.525,55.453c4.12,7.137,11.598,11.108,19.285,11.114l57.866,0.01
	c9.446,0.002,19.02-2.386,27.788-7.45C406.764,233.302,415.884,199.266,400.516,172.648z"/>
<path style="fill:#3A160A;" d="M324.493,152.278c-8.769,5.063-15.625,12.159-20.345,20.341l-28.925,50.118
	c-3.839,6.66-4.138,15.122-0.018,22.259l125.31-72.348C385.148,146.029,351.112,136.91,324.493,152.278z"/>
<path style="fill:#FA690E;" d="M381.237,183.778l-48.939,15.402l-37.809,34.681l57.874-0.003c5.83,0.002,11.588-1.543,16.652-4.467
	C384.961,220.186,390.443,199.723,381.237,183.778z"/>
<path style="fill:#FC870B;" d="M335.624,171.556c-5.064,2.924-9.281,7.138-12.196,12.19l-28.939,50.116l86.748-50.084
	C372.031,167.832,351.569,162.35,335.624,171.556z"/>
</svg>